<?xml version="1.0" standalone="no"?><!DOCTYPE svg PUBLIC "-//W3C//DTD SVG 1.1//EN" "http://www.w3.org/Graphics/SVG/1.1/DTD/svg11.dtd"><svg t="1533365632466" class="icon" style="" viewBox="0 0 1024 1024" version="1.1" xmlns="http://www.w3.org/2000/svg" p-id="12818" xmlns:xlink="http://www.w3.org/1999/xlink" width="200" height="200"><defs><style type="text/css"></style></defs><path d="M726 888q-9 0-17-5l-197-102-197 102q-9 5-19.5 4.5t-19.5-6.5q-19-14-15-36l38-218-160-154q-16-16-9-38 2-6 6.5-11.5t10.5-9 13-4.5l220-31 99-198q10-21 33-21 11 0 20 5.5t13 15.5l99 198 220 31q23 4 30 25 1 4 1.5 8.5t0 8.5-2 7.5-3.5 7-5 6.5l-160 154 38 218q2 10-2 19.5t-13 16.5q-10 7-22 7l0 0zM512 742q6 0 11.5 1t10.5 4l189 98-36-208q-4-24 14-41l153-148-212-30q-24-4-35-26l-95-190-95 190q-3 7-8.5 12.5t-12.5 9-14 4.5l-212 30 153 148q18 17 14 41l-36 208 189-98q10-5 22-5l0 0z" fill="#d81e06" p-id="12819"></path></svg>