<?xml version="1.0" standalone="no"?><!DOCTYPE svg PUBLIC "-//W3C//DTD SVG 1.1//EN" "http://www.w3.org/Graphics/SVG/1.1/DTD/svg11.dtd"><svg t="1533365692158" class="icon" style="" viewBox="0 0 1024 1024" version="1.1" xmlns="http://www.w3.org/2000/svg" p-id="17330" xmlns:xlink="http://www.w3.org/1999/xlink" width="200" height="200"><defs><style type="text/css"></style></defs><path d="M969.624 463.099C942.77 210.63 716.11 27.857 463.37 54.857S27.502 308.412 54.377 560.901C81.23 813.37 307.89 996.143 560.65 969.143c252.719-27 435.847-253.576 408.973-506.044zM647.816 323.856c40.396 0 73.143 32.747 73.143 73.143 0 40.395-32.747 73.142-73.143 73.142S574.673 437.394 574.673 397c0-40.396 32.747-73.143 73.143-73.143z m-271.674 0c40.396 0 73.143 32.747 73.143 73.143 0 40.395-32.747 73.142-73.143 73.142S303 437.394 303 397c0-40.396 32.747-73.143 73.142-73.143z m361.326 312.842c-22.319 99.16-123.193 167.79-225.489 167.79-105.994 0-206.367-70.489-226.408-171.781 0-27.377 20.898-37.199 33.77-37.199h380.093c9.362 0.021 45.16 3.26 38.034 41.19z" fill="#f69009" p-id="17331"></path></svg>