<?xml version="1.0" standalone="no"?><!DOCTYPE svg PUBLIC "-//W3C//DTD SVG 1.1//EN" "http://www.w3.org/Graphics/SVG/1.1/DTD/svg11.dtd"><svg t="1533366875017" class="icon" style="" viewBox="0 0 1024 1024" version="1.1" xmlns="http://www.w3.org/2000/svg" p-id="23958" xmlns:xlink="http://www.w3.org/1999/xlink" width="200" height="200"><defs><style type="text/css"></style></defs><path d="M1012.6 565.2c0-22-7.3-41-23.1-57.7L537.2 58c-15.8-15.7-37.9-29.4-64.2-41C445.6 5.5 421.3 0.3 399.2 0.3H135.7c-22.1 0-41.1 8.4-56.9 24.2S54.5 59.2 54.5 81.2v261.5c0 22 5.3 47.2 16.8 73.5 11.6 27.3 24.3 48.3 41.1 64l452.3 450.6c15.8 15.7 34.8 23 56.9 23s41.1-7.3 58-23L989.5 622c14.8-15.8 23.1-34.7 23.1-56.8zM313.8 259.5c-15.8 15.7-34.8 23-56.9 23s-41.1-7.3-56.9-23-23.3-34.7-23.3-56.7 7.3-41 23.3-56.7c15.8-15.7 34.8-23 56.9-23s41.1 7.3 56.9 23c15.8 15.7 23.1 34.7 23.1 56.7 1.2 22-7.3 41-23.1 56.7z" fill="#1296db" p-id="23959"></path><path d="M465.6 880.9c-0.5-0.5-1-0.9-1.7-1.4L368 783.7 218.9 635.1l0.1-0.1L68.7 484.7c-14.8-13.8-29-32.1-39.2-56.1-10.2-23-18-45.1-18-64.4v124.2c0 19.3 7.8 40.5 18 64.4 10.2 23 23.8 42.4 37.6 56.1l396 394.8c14.8 13.8 31.7 20.2 51.1 20.2 19.4 0 36.2-6.4 50.1-20.2l12.2-12-110.9-110.8z" fill="#1296db" p-id="23960"></path></svg>