<?xml version="1.0" standalone="no"?><!DOCTYPE svg PUBLIC "-//W3C//DTD SVG 1.1//EN" "http://www.w3.org/Graphics/SVG/1.1/DTD/svg11.dtd"><svg t="1533364263374" class="icon" style="" viewBox="0 0 1392 1024" version="1.1" xmlns="http://www.w3.org/2000/svg" p-id="8004" xmlns:xlink="http://www.w3.org/1999/xlink" width="271.875" height="200"><defs><style type="text/css"></style></defs><path d="M962.56 1024h-532.48C192.512 1024 0 831.488 0 593.92S192.512 163.84 430.08 163.84h532.48C1200.128 163.84 1392.64 356.352 1392.64 593.92S1200.128 1024 962.56 1024z m-532.48-737.28C262.144 286.72 122.88 425.984 122.88 593.92S262.144 901.12 430.08 901.12h532.48c167.936 0 307.2-139.264 307.2-307.2S1130.496 286.72 962.56 286.72h-532.48z" fill="#FF3334" p-id="8005"></path><path d="M409.6 532.48H348.16c-32.768 0-61.44 28.672-61.44 61.44S315.392 655.36 348.16 655.36H409.6v61.44c0 32.768 28.672 61.44 61.44 61.44s61.44-28.672 61.44-61.44V655.36h61.44c32.768 0 61.44-28.672 61.44-61.44s-28.672-61.44-61.44-61.44H532.48v-61.44c0-32.768-28.672-61.44-61.44-61.44s-61.44 28.672-61.44 61.44V532.48z" fill="#FF49D0" p-id="8006"></path><path d="M1003.52 0c32.768 0 61.44 28.672 61.44 61.44v163.84c0 32.768-28.672 61.44-61.44 61.44S942.08 258.048 942.08 225.28v-163.84c0-32.768 28.672-61.44 61.44-61.44z" fill="#FF3334" p-id="8007"></path><path d="M839.68 532.48c-8.192 0-16.384 0-24.576 4.096-8.192 4.096-12.288 8.192-20.48 12.288-4.096 4.096-8.192 12.288-12.288 20.48-4.096 8.192-4.096 16.384-4.096 24.576 0 8.192 0 16.384 4.096 24.576 4.096 8.192 8.192 12.288 12.288 20.48 4.096 4.096 12.288 8.192 20.48 12.288 8.192 4.096 16.384 4.096 24.576 4.096 8.192 0 16.384 0 24.576-4.096 8.192-4.096 12.288-8.192 20.48-12.288 4.096-4.096 8.192-12.288 12.288-20.48 4.096-8.192 4.096-16.384 4.096-24.576 0-8.192 0-16.384-4.096-24.576-4.096-8.192-8.192-12.288-12.288-20.48-4.096-4.096-12.288-8.192-20.48-12.288-8.192-4.096-16.384-4.096-24.576-4.096zM1044.48 532.48c-8.192 0-16.384 0-24.576 4.096-8.192 4.096-12.288 8.192-20.48 12.288-4.096 4.096-8.192 12.288-12.288 20.48-4.096 8.192-4.096 16.384-4.096 24.576 0 8.192 0 16.384 4.096 24.576 4.096 8.192 8.192 12.288 12.288 20.48 4.096 4.096 12.288 8.192 20.48 12.288 8.192 4.096 16.384 4.096 24.576 4.096 8.192 0 16.384 0 24.576-4.096 8.192-4.096 12.288-8.192 20.48-12.288 4.096-4.096 8.192-12.288 12.288-20.48 4.096-8.192 4.096-16.384 4.096-24.576 0-8.192 0-16.384-4.096-24.576-4.096-8.192-8.192-12.288-12.288-20.48-4.096-4.096-12.288-8.192-20.48-12.288-8.192-4.096-16.384-4.096-24.576-4.096z" fill="#FF49D0" p-id="8008"></path></svg>