<?xml version="1.0" standalone="no"?><!DOCTYPE svg PUBLIC "-//W3C//DTD SVG 1.1//EN" "http://www.w3.org/Graphics/SVG/1.1/DTD/svg11.dtd"><svg t="1533374987567" class="icon" style="" viewBox="0 0 1024 1024" version="1.1" xmlns="http://www.w3.org/2000/svg" p-id="4957" xmlns:xlink="http://www.w3.org/1999/xlink" width="200" height="200"><defs><style type="text/css"></style></defs><path d="M247.936 404.544l87.168 0-38.784 218.112 98.368 0 37.952-218.112 88 0 13.632-78.016-272.704 0-13.632 78.016zM671.936 523.264l-16.96-196.736-98.752 0 49.6 296.128 98.368 0 155.776-296.128-98.368 0-89.664 196.736zM670.72 850.176l-315.52 0c-15.36 0-27.84 12.416-27.84 27.712s12.48 27.712 27.84 27.712l315.52 0c15.36 0 27.84-12.416 27.84-27.712s-12.416-27.712-27.84-27.712zM977.856 129.344l-934.4 0c-20.48 0-32.768 12.224-32.768 32.704l0 596.416c0 20.416 20.48 32.704 40.96 32.704l926.208 0c20.48 0 32.768-12.224 32.768-32.704l0-596.416c0.064-20.416-12.224-32.704-32.768-32.704zM961.472 725.76c0 10.24-6.144 16.32-16.384 16.32l-868.864 0c-10.24 0-16.384-6.144-16.384-16.32l0-531.072c0-10.24 6.144-16.32 16.384-16.32l868.864 0c10.24 0 16.384 6.144 16.384 16.32l0 531.072z" p-id="4958" fill="#bfbfbf"></path></svg>