<?xml version="1.0" standalone="no"?><!DOCTYPE svg PUBLIC "-//W3C//DTD SVG 1.1//EN" "http://www.w3.org/Graphics/SVG/1.1/DTD/svg11.dtd"><svg t="1533372965812" class="icon" style="" viewBox="0 0 1024 1024" version="1.1" xmlns="http://www.w3.org/2000/svg" p-id="7057" xmlns:xlink="http://www.w3.org/1999/xlink" width="200" height="200"><defs><style type="text/css"></style></defs><path d="M426.666667 298.666667v85.333333H256v341.333333h512V384h-170.666667V298.666667h-170.666666zM341.333333 298.666667V213.333333h341.333334v85.333334h170.666666v512H170.666667V298.666667h170.666666z m170.666667 384c-72.533333 0-128-55.466667-128-128s55.466667-128 128-128 128 55.466667 128 128-55.466667 128-128 128z m0-85.333334c25.6 0 42.666667-17.066667 42.666667-42.666666s-17.066667-42.666667-42.666667-42.666667-42.666667 17.066667-42.666667 42.666667 17.066667 42.666667 42.666667 42.666666z" fill="#e6e6e6" p-id="7058"></path></svg>