<?xml version="1.0" standalone="no"?><!DOCTYPE svg PUBLIC "-//W3C//DTD SVG 1.1//EN" "http://www.w3.org/Graphics/SVG/1.1/DTD/svg11.dtd"><svg t="1533373353882" class="icon" style="" viewBox="0 0 1024 1024" version="1.1" xmlns="http://www.w3.org/2000/svg" p-id="1894" xmlns:xlink="http://www.w3.org/1999/xlink" width="200" height="200"><defs><style type="text/css"></style></defs><path d="M976 409.6 855.529 409.6c-7.096-23.832-16.578-46.634-28.212-68.104l85.188-85.188c18.745-18.744 18.745-49.138 0-67.881l-76.933-76.933c-18.747-18.745-49.139-18.745-67.885 0L682.5 196.681c-21.471-11.633-44.271-21.118-68.1-28.211L614.4 48c0-26.509-21.491-48-48-48L457.6 0c-26.509 0-48 21.491-48 48l0 120.47c-23.832 7.095-46.631 16.578-68.103 28.211l-85.186-85.187c-18.746-18.745-49.138-18.745-67.885 0l-76.932 76.933c-18.746 18.744-18.746 49.138 0 67.881l85.187 85.188c-11.633 21.47-21.119 44.272-28.211 68.103L48 409.599c-26.509 0-48 21.49-48 48l0 108.801c0 26.51 21.491 48 48 48l120.47 0c7.095 23.833 16.578 46.633 28.211 68.102l-85.187 85.186c-18.745 18.746-18.745 49.139 0 67.886l76.932 76.933c18.746 18.745 49.139 18.745 67.883 0l85.186-85.186c21.471 11.633 44.272 21.116 68.104 28.211L409.599 976c0 26.51 21.49 48 48 48l108.801 0c26.51 0 48-21.49 48-48L614.4 855.529c23.833-7.096 46.633-16.578 68.104-28.212l85.187 85.188c18.746 18.745 49.138 18.745 67.885 0l76.933-76.933c18.745-18.747 18.745-49.139 0-67.885L827.317 682.5c11.633-21.471 21.116-44.271 28.211-68.1L976 614.4c26.51 0 48-21.491 48-48L1024 457.6C1024 431.091 1002.51 409.6 976 409.6zM512 716.8c-113.108 0-204.8-91.689-204.8-204.8 0-113.108 91.691-204.8 204.8-204.8 113.109 0 204.8 91.692 204.8 204.8C716.8 625.109 625.109 716.8 512 716.8z" p-id="1895" fill="#e6e6e6"></path></svg>