<?xml version="1.0" standalone="no"?><!DOCTYPE svg PUBLIC "-//W3C//DTD SVG 1.1//EN" "http://www.w3.org/Graphics/SVG/1.1/DTD/svg11.dtd"><svg t="1533364250021" class="icon" style="" viewBox="0 0 1024 1024" version="1.1" xmlns="http://www.w3.org/2000/svg" p-id="7248" xmlns:xlink="http://www.w3.org/1999/xlink" width="200" height="200"><defs><style type="text/css"></style></defs><path d="M841.813333 70.4l63.274667 834.602667c2.048 27.221333-17.621333 48.597333-44.373333 48.597333H163.285333c-27.136 0-46.506667-20.949333-44.373333-48.597333L182.101333 70.4h659.712z m51.456-55.466667H130.730667L63.616 900.821333c-4.522667 59.733333 40.277333 108.245333 99.712 108.245334h697.344c59.178667 0 104.192-48.938667 99.712-108.245334L893.269333 14.933333z" fill="#00AEFF" p-id="7249"></path><path d="M270.933333 298.666667a241.066667 241.066667 0 0 0 482.133334 0 27.733333 27.733333 0 1 0-55.466667 0 185.6 185.6 0 1 1-371.2 0 27.733333 27.733333 0 1 0-55.466667 0z" fill="#00AEFF" p-id="7250"></path><path d="M298.666667 256m-42.666667 0a42.666667 42.666667 0 1 0 85.333333 0 42.666667 42.666667 0 1 0-85.333333 0Z" fill="#00AEFF" p-id="7251"></path><path d="M725.333333 256m-42.666666 0a42.666667 42.666667 0 1 0 85.333333 0 42.666667 42.666667 0 1 0-85.333333 0Z" fill="#00AEFF" p-id="7252"></path></svg>