<?xml version="1.0" standalone="no"?><!DOCTYPE svg PUBLIC "-//W3C//DTD SVG 1.1//EN" "http://www.w3.org/Graphics/SVG/1.1/DTD/svg11.dtd"><svg t="1533518493574" class="icon" style="" viewBox="0 0 1246 1024" version="1.1" xmlns="http://www.w3.org/2000/svg" p-id="1930" xmlns:xlink="http://www.w3.org/1999/xlink" width="243.359375" height="200"><defs><style type="text/css"></style></defs><path d="M444.778993 0C199.048869 0 0 166.558716 0 373.450036a354.777535 354.777535 0 0 0 174.774617 295.398979l4.10795 2.614151-43.320204 133.321663 160.956966-81.785558 7.469001 2.2407a525.070751 525.070751 0 0 0 140.790663 19.045952h29.876003a288.676878 288.676878 0 0 1-14.191101-88.881109c0-186.725018 181.496718-339.466083 405.19329-339.466083h18.672501C851.839533 136.682713 667.355215 0 444.778993 0zM290.170678 304.36178a60.498906 60.498906 0 1 1 62.366156-60.498906 61.619256 61.619256 0 0 1-62.366156 60.498906z m309.590081 0a60.498906 60.498906 0 1 1 62.366156-60.498906 61.619256 61.619256 0 0 1-62.366156 60.498906z" p-id="1931" fill="#1afa29"></path><path d="M1244.708972 656.525164c0-173.654267-168.052516-314.071481-375.690737-314.071481s-375.690737 140.790664-375.690737 314.071481S661.753465 970.970095 869.018235 970.970095a442.164843 442.164843 0 0 0 118.757111-16.058352h6.348651l135.935813 69.088257-37.345003-112.035011 3.36105-2.2407a298.760029 298.760029 0 0 0 147.512764-249.838075z m-506.39825-57.137855a51.162655 51.162655 0 1 1 52.656455-51.162655 51.909555 51.909555 0 0 1-52.656455 51.162655z m261.415026 0a51.162655 51.162655 0 1 1 52.656455-51.162655 51.909555 51.909555 0 0 1-52.656455 51.162655z" p-id="1932" fill="#1afa29"></path></svg>