<?xml version="1.0" standalone="no"?><!DOCTYPE svg PUBLIC "-//W3C//DTD SVG 1.1//EN" "http://www.w3.org/Graphics/SVG/1.1/DTD/svg11.dtd"><svg t="1533518796802" class="icon" style="" viewBox="0 0 1024 1024" version="1.1" xmlns="http://www.w3.org/2000/svg" p-id="5679" xmlns:xlink="http://www.w3.org/1999/xlink" width="200" height="200"><defs><style type="text/css"></style></defs><path d="M899 603.9c0-106.3-106.2-192.8-225.8-192.8-126.6 0-226.1 86.5-226.1 192.8 0 106.5 99.4 192.7 226.1 192.7 26.5 0 53.3-6.8 79.8-13.2l73 40-20-66.5c53.3-39.9 93-93.2 93-153z m-299-33.2c-13.2 0-26.5-13.2-26.5-26.5 0-13.2 13.2-26.5 26.5-26.5 20 0 33.3 13.3 33.3 26.5S620 570.7 600 570.7z m146.3 0c-13.2 0-26.4-13.2-26.4-26.5 0-13.2 13.2-26.5 26.4-26.5 20 0 33.3 13.3 33.3 26.5-0.1 13.2-13.6 26.5-33.3 26.5z" p-id="5680" fill="#1afa29"></path><path d="M651.4 387.7c8.7 0 17.4 0.6 26.1 1.5-23.4-109.4-140.3-190.6-273.8-190.6-149.1 0-271.4 101.6-271.4 230.8 0 74.6 40.6 135.9 108.5 183.4l-27 81.7 95-47.8c34 6.6 61.3 13.5 95 13.5 8.4 0 16.9-0.3 25.3-1.2-5.4-18.1-8.4-37.3-8.4-56.8-0.2-118.3 101.7-214.5 230.7-214.5zM505.2 314c20.4 0 33.9 13.5 33.9 34 0 20.4-13.5 33.9-33.9 33.9-20.5 0-40.9-13.5-40.9-33.9 0.4-20.5 20.8-34 40.9-34z m-189.9 67.9c-20.4 0-40.9-13.5-40.9-34 0-20.4 20.4-34 40.9-34s34 13.5 34 34c0 20.2-13.6 34-34 34z" p-id="5681" fill="#1afa29"></path></svg>